# xmcd CD database file
#
# Track frame offsets:
#	150
#	23455
#	45437
#
# Disc length: 852 seconds
#
# Revision: 0
# Processed by: cddbd v1.5PL3 Copyright (c) Steve Scherf et al.
# Submitted via: CDex 1.50Beta7
#
DISCID=13035203
DTITLE=SUPER SOUL SONICS - rise
DYEAR=2000
DGENRE=rock_pop
TTITLE0=ライス
TTITLE1=ベージュ
TTITLE2=フライングメン
EXTD=YEAR: 2000
EXTT0=
EXTT1=
EXTT2=
PLAYORDER=
